# xmcd
#
# Track frame offsets:
#	150
#	11092
#	28899
#	48172
#	67532
#	88077
#	104266
#	120329
#	136505
#	154822
#	170773
#	182542
#	193249
#	207167
#	221520
#	233127
#	245836
#	257590
#	270657
#	283328
#
# Disc length: 3985 seconds
# Revision: 0
# Processed by: cddbd v1.5.2PL0 Copyright (c) Steve Scherf et al.
# Submitted via: dBpowerAMP V12.0
#
DISCID=1b0f8f14
DTITLE=Various Artist - The Essential Country Vol 4 disc 2
DYEAR=2010
DGENRE=Country
TTITLE0=Alan Jackson - She's Got The Rythym (And I Got The Blues)
TTITLE1=Brooks and Dunn - She Used To Be Mine
TTITLE2=Miranda Lambert - Bring Me Down
TTITLE3=Montgomery Gentry - Daddy Won't Sell The Farm
TTITLE4=Patty Loveless - Lonely Too Long
TTITLE5=Adam Harvey - Flowers
TTITLE6=Lonestar - Smile
TTITLE7=Crystal Shawanda - You Can Let Go
TTITLE8=huck WicksC - Stealing Cinderella
TTITLE9=Merie Haggard - Someday When Things Are Good
TTITLE10=Tammy Wynette - I Don't Wanna Play House
TTITLE11=Waylon Jennings - The Taker
TTITLE12=Willie Nelson - My Heroes Have Always Been Cowboys
TTITLE13=Johnny Paycheck - I's The Only Hell (My Mamma Ever Raised)
TTITLE14=Jim Reeves - Welcome To My World
TTITLE15=George Jones - She Thinks I Still Care
TTITLE16=Roseanne Cash - I Don't Want To Spoil The Party
TTITLE17=Marty Robins - Devil Woman
TTITLE18=Johnny Horton - North To Alaska
TTITLE19=The Charlie Daniels Band - Boogie Woogie Fiddle Country Blues
EXTD=
EXTT0=
EXTT1=
EXTT2=
EXTT3=
EXTT4=
EXTT5=
EXTT6=
EXTT7=
EXTT8=
EXTT9=
EXTT10=
EXTT11=
EXTT12=
EXTT13=
EXTT14=
EXTT15=
EXTT16=
EXTT17=
EXTT18=
EXTT19=
PLAYORDER=
